<?xml version="1.0" encoding="UTF-8" standalone="no"?>
<!-- Created with Inkscape (http://www.inkscape.org/) -->

<svg
   width="192"
   height="192"
   viewBox="0 0 50.8 50.8"
   version="1.1"
   id="svg1"
   xml:space="preserve"
   inkscape:version="1.4.3 (0d15f75, 2025-12-25)"
   sodipodi:docname="logo.svg"
   xmlns:inkscape="http://www.inkscape.org/namespaces/inkscape"
   xmlns:sodipodi="http://sodipodi.sourceforge.net/DTD/sodipodi-0.dtd"
   xmlns="http://www.w3.org/2000/svg"
   xmlns:svg="http://www.w3.org/2000/svg"><sodipodi:namedview
     id="namedview1"
     pagecolor="#ffffff"
     bordercolor="#000000"
     borderopacity="0.25"
     inkscape:showpageshadow="2"
     inkscape:pageopacity="0.0"
     inkscape:pagecheckerboard="0"
     inkscape:deskcolor="#d1d1d1"
     inkscape:document-units="mm"
     inkscape:clip-to-page="true"
     inkscape:zoom="1.5162318"
     inkscape:cx="52.762382"
     inkscape:cy="135.53337"
     inkscape:window-width="1920"
     inkscape:window-height="1009"
     inkscape:window-x="-8"
     inkscape:window-y="-8"
     inkscape:window-maximized="1"
     inkscape:current-layer="layer1" /><defs
     id="defs1" /><g
     inkscape:label="Layer 1"
     inkscape:groupmode="layer"
     id="layer1"><rect
       style="font-variation-settings:normal;opacity:1;vector-effect:none;fill:#8d4700;fill-opacity:1;fill-rule:evenodd;stroke-width:1;stroke-linecap:butt;stroke-linejoin:miter;stroke-miterlimit:4;stroke-dasharray:none;stroke-dashoffset:0;stroke-opacity:1;-inkscape-stroke:none;stop-color:#000000;stop-opacity:1"
       id="rect1"
       width="75.733253"
       height="83.411285"
       x="-8.5505285"
       y="-5.5840192"
       inkscape:label="bg" /><path
       id="path2"
       style="fill:#ffffff;fill-opacity:1;stroke-width:0.154082;stroke-linecap:round;stroke-linejoin:round"
       d="m 21.231207,9.8892407 c -0.216698,-0.0039 -0.533207,0.1406263 -1.174054,0.4608603 -1.785643,0.892296 -4.030123,3.370731 -4.940792,5.456408 -0.846027,1.937631 -1.683738,5.006986 -1.683738,6.168689 0,0.349651 0.04954,0.368232 0.981496,0.368232 1.181975,0 3.223236,0.340688 4.488601,0.749241 1.385971,0.447493 1.350936,0.463635 1.205082,-0.556683 -0.06966,-0.487285 -0.122809,-2.20312 -0.118181,-3.81328 0.0096,-3.332616 0.101832,-3.825531 1.229266,-6.561105 0.672763,-1.632373 0.694134,-1.728865 0.442609,-2.006797 C 21.507865,9.9850447 21.39975,9.8922967 21.231207,9.8892407 Z m 3.599733,0.7538033 c -0.398995,-0.01104 -0.801384,0.152632 -1.247975,0.493258 -1.017772,0.776281 -1.222867,1.256159 -1.408134,3.293101 -0.161089,1.771108 0.02886,7.21281 0.265109,7.595075 0.05607,0.09072 0.136813,0.164724 0.179325,0.164724 0.04251,0 0.644769,-0.493016 1.338777,-1.096027 1.400023,-1.216456 3.017455,-2.354727 4.189727,-2.948596 0.423727,-0.214659 0.902435,-0.536593 1.064084,-0.715475 0.26415,-0.292311 0.274329,-0.391503 0.100386,-0.979671 -0.497253,-1.681405 -2.493153,-4.765077 -3.537219,-5.465078 -0.325557,-0.218271 -0.633751,-0.332724 -0.94408,-0.341311 z m 11.641068,6.487641 c -4.117215,0.02529 -8.338114,1.799603 -12.139346,5.133349 -1.353349,1.186912 -1.654991,1.549755 -1.654991,1.991284 0,0.130503 0.641124,0.667992 1.425017,1.194587 0.783894,0.526595 1.806719,1.256776 2.27282,1.622139 0.466097,0.365363 0.921893,0.664316 1.012981,0.664369 0.592801,3.46e-4 7.923116,-2.902601 10.343355,-4.096185 2.702016,-1.332547 3.897696,-2.637223 3.897696,-4.252238 0,-1.335252 -0.822652,-1.858086 -3.400786,-2.16057 -0.582414,-0.06833 -1.168573,-0.100347 -1.756746,-0.09673 z m 6.83625,3.984848 c -0.317694,0.01885 -0.746596,0.362741 -1.267137,1.036252 -2.388382,3.090245 -5.240228,4.835357 -11.003164,6.733586 -0.952538,0.313753 -1.773193,0.637201 -1.823821,0.719124 -0.05063,0.08192 0.192658,0.585996 0.540712,1.120211 0.926262,1.421681 1.649054,2.963404 1.949303,4.158699 l 0.264197,1.052221 0.554858,-0.08579 c 0.792503,-0.122704 3.753454,-1.653203 5.023381,-2.596333 3.882118,-2.883127 6.384215,-7.03607 6.392275,-10.610746 0.0023,-1.038446 -0.22214,-1.55146 -0.630604,-1.527229 z m -29.228149,2.413815 c -1.059908,-0.0142 -2.083002,0.04596 -2.650633,0.186626 -1.268908,0.314452 -2.6191488,1.04582 -2.6191488,1.418629 0,0.251122 0.7162233,0.778594 1.9981278,1.47156 2.030034,1.097386 3.182366,1.9293 7.318102,5.28256 5.756538,4.667405 7.619951,5.954981 9.134623,6.311964 0.868153,0.204608 1.290095,0.191133 2.168785,-0.06981 1.109618,-0.32952 1.320765,-0.694742 1.225159,-2.11631 -0.09117,-1.35568 -0.592294,-2.606935 -1.76496,-4.409203 -2.418053,-3.716303 -7.01979,-6.729081 -11.938573,-7.815468 -0.71468,-0.157848 -1.811574,-0.246344 -2.871482,-0.260546 z m -5.4573201,3.745293 c -0.4717818,7.71e-4 -1.2746854,0.506184 -1.6052553,1.010699 -0.2413712,0.368379 -0.2503302,0.552091 -0.089891,1.81789 0.3865195,3.049471 1.642123,5.560256 3.8981514,7.794021 2.366391,2.343038 6.057523,4.139236 9.656172,4.699409 1.812268,0.282095 2.826503,0.283914 4.410118,0.0078 1.676276,-0.292317 3.200921,-0.897092 3.883092,-1.540461 0.936414,-0.883154 0.671589,-1.239765 -1.08462,-1.462432 -2.983649,-0.37829 -5.85298,-1.690177 -8.681975,-3.968878 -0.53487,-0.430826 -2.217475,-1.943809 -3.73936,-3.362458 -4.056224,-3.78112 -5.6740491,-4.997226 -6.6464321,-4.99559 z" /></g></svg>
